<?xml version="1.0" encoding="UTF-8"?>
<svg width="27px" height="25px" viewBox="0 0 27 25" version="1.1" xmlns="http://www.w3.org/2000/svg" xmlns:xlink="http://www.w3.org/1999/xlink">
    <!-- Generator: Sketch 52.5 (67469) - http://www.bohemiancoding.com/sketch -->
    <title>heart-and-fork-inside</title>
    <desc>Created with Sketch.</desc>
    <g id="Page-1" stroke="none" stroke-width="1" fill="none" fill-rule="evenodd">
        <g id="heart-and-fork-inside" fill="#8ED444">
            <path d="M16.497,15.983 C16.475,15.96 16.464,15.928 16.444,15.903 C15.372,16.592 14.056,16.585 12.776,15.443 C12.742,15.422 12.709,15.407 12.679,15.378 L8.924,11.623 C8.75,11.449 8.751,11.17 8.924,10.997 C9.096,10.824 9.376,10.824 9.55,10.998 L13.181,14.628 L13.807,14.003 L10.176,10.372 C10.002,10.198 10.003,9.918 10.176,9.745 C10.349,9.572 10.628,9.572 10.802,9.746 L14.433,13.376 L15.059,12.749 L11.428,9.119 C11.254,8.945 11.254,8.666 11.428,8.493 C11.601,8.32 11.881,8.319 12.054,8.493 L15.685,12.124 L16.311,11.498 L12.68,7.867 C12.506,7.693 12.506,7.414 12.679,7.241 C12.852,7.068 13.132,7.067 13.305,7.241 L17.06,10.997 C17.089,11.026 17.105,11.06 17.124,11.095 C18.266,12.375 18.273,13.692 17.585,14.763 C17.61,14.784 17.643,14.792 17.665,14.816 L21.439,18.589 C24.617,15.52 27.437,11.452 26.966,6.911 C26.176,-0.747 17.626,-0.628 13.508,3.068 C9.391,-0.628 0.846,-0.748 0.052,6.911 C-0.97,16.768 13.51,24.405 13.51,24.405 C13.51,24.405 16.858,22.635 20.221,19.706 L16.497,15.983 Z" id="Path"></path>
        </g>
    </g>
</svg>